<svg width="118" height="118" viewBox="0 0 118 118" fill="none" xmlns="http://www.w3.org/2000/svg">
<path d="M6.9817 48.6947L6.96859 48.6881C6.96859 48.6881 0.245865 89.3883 0.245865 95.2555C0.245865 101.234 4.64792 106.079 10.0792 106.079C12.3081 106.079 14.3403 105.233 15.989 103.856L49.3109 74.5596L6.9817 48.6947ZM110.854 48.6947L110.868 48.6881C110.868 48.6881 117.59 89.3883 117.59 95.2555C117.59 101.234 113.188 106.079 107.757 106.079C105.528 106.079 103.496 105.233 101.847 103.856L68.5253 74.5596L110.854 48.6947Z" fill="#42A1BF"/>
<path d="M85.1403 78.8339C100.528 78.8339 113.001 66.3601 113.001 50.9728C113.001 35.5855 100.528 23.1117 85.1403 23.1117C69.753 23.1117 57.2792 35.5855 57.2792 50.9728C57.2792 66.3601 69.753 78.8339 85.1403 78.8339Z" fill="#52D9E9"/>
<path d="M32.6958 78.8339C48.0831 78.8339 60.557 66.3601 60.557 50.9728C60.557 35.5855 48.0831 23.1117 32.6958 23.1117C17.3086 23.1117 4.83473 35.5855 4.83473 50.9728C4.83473 66.3601 17.3086 78.8339 32.6958 78.8339Z" fill="#52D9E9"/>
<path d="M32.6958 23.1117H85.1403V78.4078H32.6958V23.1117Z" fill="#52D9E9"/>
<path d="M42.857 92.7645C51.9083 92.7645 59.2459 85.4269 59.2459 76.3756C59.2459 67.3242 51.9083 59.9867 42.857 59.9867C33.8056 59.9867 26.4681 67.3242 26.4681 76.3756C26.4681 85.4269 33.8056 92.7645 42.857 92.7645Z" fill="#52D9E9"/>
<path d="M74.9792 92.7645C84.0305 92.7645 91.368 85.4269 91.368 76.3756C91.368 67.3242 84.0305 59.9867 74.9792 59.9867C65.9278 59.9867 58.5903 67.3242 58.5903 76.3756C58.5903 85.4269 65.9278 92.7645 74.9792 92.7645Z" fill="#52D9E9"/>
<path d="M74.9792 86.2089C80.41 86.2089 84.8125 81.8064 84.8125 76.3756C84.8125 70.9448 80.41 66.5422 74.9792 66.5422C69.5484 66.5422 65.1458 70.9448 65.1458 76.3756C65.1458 81.8064 69.5484 86.2089 74.9792 86.2089Z" fill="#42A1BF"/>
<path d="M42.857 86.2089C48.2878 86.2089 52.6903 81.8064 52.6903 76.3756C52.6903 70.9448 48.2878 66.5422 42.857 66.5422C37.4262 66.5422 33.0236 70.9448 33.0236 76.3756C33.0236 81.8064 37.4262 86.2089 42.857 86.2089Z" fill="#42A1BF"/>
<path d="M84.3536 41.7459C87.2554 41.7459 89.6079 39.3934 89.6079 36.4916C89.6079 33.5897 87.2554 31.2373 84.3536 31.2373C81.4517 31.2373 79.0993 33.5897 79.0993 36.4916C79.0993 39.3934 81.4517 41.7459 84.3536 41.7459Z" fill="#42A1BF"/>
<path d="M84.3536 62.9662C87.2554 62.9662 89.6079 60.6138 89.6079 57.7119C89.6079 54.8101 87.2554 52.4576 84.3536 52.4576C81.4517 52.4576 79.0993 54.8101 79.0993 57.7119C79.0993 60.6138 81.4517 62.9662 84.3536 62.9662Z" fill="#42A1BF"/>
<path d="M73.7434 52.3558C76.6453 52.3558 78.9977 50.0034 78.9977 47.1016C78.9977 44.1997 76.6453 41.8473 73.7434 41.8473C70.8416 41.8473 68.4892 44.1997 68.4892 47.1016C68.4892 50.0034 70.8416 52.3558 73.7434 52.3558Z" fill="#42A1BF"/>
<path d="M94.9638 52.3558C97.8656 52.3558 100.218 50.0034 100.218 47.1016C100.218 44.1997 97.8656 41.8473 94.9638 41.8473C92.0619 41.8473 89.7095 44.1997 89.7095 47.1016C89.7095 50.0034 92.0619 52.3558 94.9638 52.3558Z" fill="#42A1BF"/>
<path d="M36.5407 41.018V33.9117C36.5407 32.9972 35.7999 32.2565 34.8854 32.2565H29.7786C28.8641 32.2565 28.1233 32.9972 28.1233 33.9117V41.018L32.332 45.2299L36.5407 41.018ZM28.1201 52.9163V60.0225C28.1201 60.937 28.8608 61.6778 29.7753 61.6778H34.8821C35.7966 61.6778 36.5374 60.937 36.5374 60.0225V52.9163L32.3287 48.7044L28.1201 52.9163ZM45.3907 42.7552H38.2844L34.0725 46.9671L38.2844 51.1791H45.3907C46.3052 51.1791 47.0459 50.435 47.0459 49.5238V44.4138C47.0459 43.4993 46.3052 42.7552 45.3907 42.7552ZM26.3828 42.7552H19.2733C18.3588 42.7552 17.6181 43.4992 17.6181 44.4105V49.5173C17.6181 50.4318 18.3588 51.1725 19.2733 51.1725H26.3796L30.5915 46.9606L26.3828 42.7552Z" fill="#42A1BF"/>
</svg>
