<svg width="139" height="139" viewBox="0 0 139 139" fill="none" xmlns="http://www.w3.org/2000/svg">
<path d="M131.278 112.343C129.668 108.625 127.818 104.59 123.556 104.59H119.694C123.957 104.59 127.417 101.119 127.417 96.8366V30.9197C127.417 26.6378 123.957 23.1666 119.694 23.1666H19.3056C15.0429 23.1666 11.5833 26.6378 11.5833 30.9197V96.8366C11.5833 101.119 15.0429 104.59 19.3056 104.59H15.4444C11.1818 104.59 9.00797 108.466 7.72222 112.343L0 131.243C0 135.529 3.45956 139 7.72222 139H131.278C135.54 139 139 135.529 139 131.247L131.278 112.343Z" fill="#51D9EA"/>
<path d="M0.0308838 131.567L0.0540505 131.787L0.710439 134.459C1.93055 137.131 4.60244 139 7.72222 139H131.278C135.432 139 138.795 135.699 138.969 131.567H0.0308838Z" fill="#5CB9D6"/>
<path d="M119.694 92.9563C119.694 95.0992 117.969 96.8329 115.833 96.8329H23.1667C21.0353 96.8329 19.3055 95.0992 19.3055 92.9563V34.8003C19.3055 32.6573 21.0353 30.9237 23.1667 30.9237H115.833C117.969 30.9237 119.694 32.6612 119.694 34.8003V92.9563Z" fill="white" fill-opacity="0.8"/>
<path d="M127.054 119.857L124.119 111.459C123.196 109.683 121.667 108.227 119.532 108.227H19.7302C17.5989 108.227 16.2321 109.802 15.2668 112.227L12.6103 119.861C11.7648 122.162 14.3401 123.737 16.4715 123.737H45.731C45.731 123.737 49.3488 123.556 49.9898 121.39C50.7311 118.888 51.5921 115.119 51.7775 114.455C52.0632 113.436 53.2756 112.405 55.0826 112.405H88.2032C90.1337 112.405 91.0836 113.382 91.3346 114.59C91.4967 115.378 92.5392 118.996 93.0257 121.471C93.4543 123.675 97.7401 123.733 97.7401 123.733H123.2C125.328 123.733 127.899 121.915 127.054 119.857Z" fill="#5CB9D6"/>
<path d="M86.3924 127.853H56.3491C54.9012 127.853 54.2718 126.529 54.4803 125.247C54.6888 123.969 55.8664 118.324 55.9591 117.667C56.0479 117.007 57.017 116.219 57.9823 116.219H85.068C86.2148 116.219 86.96 116.849 87.1916 118.107C87.4194 119.37 88.3577 124.444 88.4311 125.602C88.5044 126.764 87.7785 127.853 86.3924 127.853Z" fill="#5CB9D6"/>
<path d="M92.3107 50.3689C89.8516 46.1555 86.516 42.8197 82.303 40.3609C78.0893 37.9019 73.4893 36.6727 68.4996 36.6727C63.5105 36.6727 58.9089 37.9023 54.6962 40.3609C50.4828 42.8196 47.1473 46.1555 44.6882 50.3689C42.2294 54.5822 41 59.1831 41 64.1715C41 70.1638 42.7483 75.5522 46.2457 80.3381C49.7427 85.1244 54.2604 88.4363 59.7982 90.2742C60.4429 90.3939 60.9201 90.3097 61.2303 90.0239C61.5407 89.7377 61.6957 89.3793 61.6957 88.9501C61.6957 88.8785 61.6896 88.2343 61.6777 87.0166C61.6654 85.799 61.6596 84.7367 61.6596 83.8304L60.836 83.9728C60.3109 84.069 59.6485 84.1098 58.8487 84.0982C58.0493 84.0871 57.2195 84.0033 56.3603 83.8475C55.5007 83.6932 54.7012 83.3351 53.9611 82.7741C53.2214 82.2132 52.6963 81.4789 52.3859 80.5724L52.0279 79.7484C51.7892 79.1998 51.4135 78.5905 50.9001 77.9225C50.3868 77.2539 49.8677 76.8007 49.3426 76.562L49.0919 76.3826C48.9249 76.2633 48.7699 76.1194 48.6265 75.9525C48.4833 75.7856 48.3761 75.6185 48.3045 75.4512C48.2327 75.2838 48.2922 75.1465 48.4834 75.0387C48.6747 74.931 49.0203 74.8787 49.5219 74.8787L50.2377 74.9857C50.7152 75.0814 51.3057 75.3672 52.0102 75.8449C52.7143 76.3222 53.293 76.9428 53.7467 77.7063C54.296 78.6853 54.9578 79.4312 55.734 79.9445C56.5095 80.4579 57.2915 80.7141 58.0791 80.7141C58.8667 80.7141 59.5469 80.6544 60.1201 80.5356C60.6926 80.4162 61.2297 80.2368 61.7312 79.9982C61.9461 78.3982 62.531 77.169 63.4855 76.3098C62.125 76.1668 60.9019 75.9515 59.8154 75.6652C58.7296 75.3785 57.6075 74.9132 56.45 74.2681C55.2918 73.6238 54.331 72.8238 53.5673 71.8694C52.8035 70.9145 52.1767 69.6609 51.6877 68.1096C51.1985 66.5578 50.9538 64.7676 50.9538 62.7387C50.9538 59.8498 51.8969 57.3914 53.7828 55.3622C52.8994 53.1903 52.9828 50.7555 54.0332 48.0582C54.7255 47.8431 55.7521 48.0045 57.1126 48.5414C58.4734 49.0785 59.4697 49.5387 60.1025 49.9202C60.7353 50.3015 61.2424 50.6247 61.6244 50.8869C63.8448 50.2664 66.1363 49.9562 68.4993 49.9562C70.8624 49.9562 73.1543 50.2664 75.3749 50.8869L76.7355 50.0279C77.6659 49.4548 78.7647 48.9295 80.0291 48.4521C81.2943 47.9749 82.2617 47.8434 82.9304 48.0585C84.0042 50.756 84.0999 53.1907 83.2162 55.3626C85.1019 57.3918 86.0454 59.8508 86.0454 62.7391C86.0454 64.768 85.7999 66.5638 85.3114 68.1276C84.8223 69.6916 84.1901 70.944 83.4145 71.8874C82.6381 72.8306 81.6711 73.6243 80.5136 74.2685C79.3557 74.9131 78.2333 75.3784 77.1475 75.6651C76.0611 75.9518 74.838 76.1672 73.4775 76.3104C74.7183 77.3842 75.3389 79.0792 75.3389 81.3946V88.9491C75.3389 89.3783 75.4881 89.7366 75.7868 90.0229C76.0852 90.3087 76.5564 90.3929 77.201 90.2731C82.7396 88.4354 87.2573 85.1234 90.7542 80.3371C94.2507 75.5512 95.9996 70.1628 95.9996 64.1705C95.9984 59.1827 94.7683 54.5822 92.3107 50.3689Z" fill="#52D9E9"/>
</svg>
