<svg width="117" height="117" viewBox="0 0 117 117" fill="none" xmlns="http://www.w3.org/2000/svg">
<g clip-path="url(#clip0)">
<path d="M47.3525 89.9372C56.498 84.4382 68.9162 77.5644 79.5243 66.9564C102.372 44.1122 120.894 11.8039 116.295 7.2052C111.699 2.6097 79.391 21.1314 56.5435 43.9757C45.9322 54.5869 39.0617 67.0019 33.5627 76.1474L47.3525 89.9372Z" fill="#52D9E9"/>
<path d="M1.39098 112.918C1.39098 112.918 24.3717 117.514 40.4592 101.426C47.3525 94.5328 47.3525 85.3418 47.3525 85.3418L38.1582 76.1476C38.1582 76.1476 26.6695 78.4486 22.0707 83.0441C17.4752 87.6396 13.8872 96.7981 12.6847 101.238C10.4877 109.369 1.39098 112.918 1.39098 112.918Z" fill="#BDBDBD"/>
<path d="M58.1165 82.3159L41.3205 65.5199C40.0498 64.2492 38.207 64.4604 37.193 65.9912L33.5433 71.5324C32.5325 73.0632 32.6625 75.2439 33.826 76.4107L47.2225 89.8104C48.386 90.9739 50.57 91.1007 52.1008 90.0932L57.642 86.4402C59.176 85.4294 59.384 83.5867 58.1165 82.3159Z" fill="#CCD6DD"/>
<path d="M36.4942 104.845C32.6235 107.344 30.5597 105.261 31.265 102.866C31.9832 100.425 30.875 97.5096 27.2447 98.2701C23.6145 99.0274 21.2127 97.1196 22.36 92.5274C23.491 88.0001 18.8337 86.4726 16.6595 91.1136C14.768 94.8836 13.3542 98.7804 12.688 101.237C10.4877 109.372 1.39098 112.921 1.39098 112.921C1.39098 112.921 20.852 116.769 36.4942 104.845Z" fill="#42A1BF"/>
</g>
<defs>
<clipPath id="clip0">
<rect width="117" height="117" fill="white"/>
</clipPath>
</defs>
</svg>
